Coordinates
version=1
nRows=12
nColumns=34
inDegrees=yes

Units are S.I. units (second, meters, Newtons, ...)
If the header above contains a line with 'inDegrees', this indicates whether rotational values are in degrees (yes) or radians (no).

endheader
time	pelvis_tilt	pelvis_list	pelvis_rotation	pelvis_tx	pelvis_ty	pelvis_tz	hip_flexion_r	hip_adduction_r	hip_rotation_r	knee_angle_r	ankle_angle_r	subtalar_angle_r	mtp_angle_r	hip_flexion_l	hip_adduction_l	hip_rotation_l	knee_angle_l	ankle_angle_l	subtalar_angle_l	mtp_angle_l	lumbar_extension	lumbar_bending	lumbar_rotation	arm_flex_r	arm_add_r	arm_rot_r	elbow_flex_r	pro_sup_r	arm_flex_l	arm_add_l	arm_rot_l	elbow_flex_l	pro_sup_l
      5.20833330	    -10.96502023	      2.19792561	     -0.53620662	      1.81882872	      1.00815588	     -0.51349186	     26.25882101	     -2.61876766	      4.23041482	     61.45184032	      5.28751220	    -30.48421799	      0.00000000	     11.07064953	      8.15433141	      2.09452916	     10.80170185	      7.43961584	    -10.22331967	      0.00000000	     -5.22157611	     -2.26362695	     -5.52529045	    -11.84188580	     -6.36694193	     10.20586890	     85.16058694	     94.85884633	     -1.34287046	    -14.10161960	      7.83214010	    106.64465815	     99.65966211
      5.21666670	    -10.73765838	      2.54366038	     -0.65763342	      1.82232397	      1.00197776	     -0.51223582	     26.17662047	     -2.89798200	      4.60316258	     61.75994503	      8.27036883	    -29.25638742	      0.00000000	     10.68434290	      8.38766601	      1.49400090	     10.60669755	      8.40617876	     -9.56895495	      0.00000000	     -5.13478549	     -2.84958146	     -4.88350769	    -11.83108896	     -6.21168038	     10.13196909	     83.77170843	     94.92189403	     -1.04031114	    -14.00674199	      8.56518100	    106.42588638	     99.48601078
      5.22500000	    -10.80493075	      2.62766384	     -0.59992746	      1.81726540	      1.00716826	     -0.51176561	     26.15244442	     -2.93790007	      4.73302210	     61.18624098	      8.34120527	    -29.22735143	      0.00000000	     10.90442177	      8.45081143	      1.55113722	     10.55622112	      8.38816621	     -9.51474839	      0.00000000	     -5.22509016	     -2.87184356	     -4.82245734	    -11.72536855	     -6.21824086	     10.11121642	     83.77796707	     94.92200776	     -1.06532570	    -13.98827103	      8.58780908	    106.39632818	     99.48202195
      5.23333330	    -10.96408376	      2.60918350	     -0.43825285	      1.81669362	      1.00460662	     -0.51045849	     26.27307186	     -2.95793707	      4.59131181	     60.61237258	      9.78198436	    -27.75927707	      0.00000000	     11.23430404	      8.35419702	      1.37945855	     10.70871520	      8.53997727	     -8.73185166	      0.00000000	     -4.89898277	     -2.94546217	     -4.55540067	    -11.48626908	     -6.13692148	      9.94393091	     82.61377104	     94.95707992	     -0.77044775	    -13.77428925	      9.25617313	    105.79449468	     99.33847692
      5.24166670	    -11.05226600	      2.75581565	     -0.31879923	      1.81500559	      1.00614312	     -0.50891800	     26.36132169	     -2.98656609	      4.80247712	     59.82475151	      9.84439688	    -27.71072134	      0.00000000	     11.43078229	      8.47043526	      1.38402568	     10.68646136	      8.53520921	     -8.71259783	      0.00000000	     -5.06848649	     -2.99541816	     -4.54813513	    -11.39849850	     -6.11775664	      9.93071593	     82.60599149	     94.95687232	     -0.73344482	    -13.75194080	      9.27371815	    105.76534137	     99.33437451
      5.25000000	    -11.13059264	      2.85577070	     -0.38081241	      1.81697478	      1.00588197	     -0.50776279	     26.37922670	     -2.90604462	      5.07706181	     59.18368418	     10.93447461	    -26.17690797	      0.00000000	     11.50413917	      8.42986466	      1.01601807	     10.65110286	      8.22350308	     -7.87048367	      0.00000000	     -4.83293022	     -3.28150502	     -4.28899834	    -11.09960068	     -5.74639084	      9.60595761	     81.13887343	     94.96600458	     -0.61300431	    -13.55098180	      9.84416118	    105.11497411	     99.19789289
      5.25833330	    -11.15718551	      2.97935839	     -0.18710964	      1.81563090	      1.00247959	     -0.50662477	     26.33644226	     -2.92677442	      5.23075577	     58.62214623	     10.97359267	    -25.99751314	      0.00000000	     11.60557140	      8.50555637	      1.00043258	     10.80313868	      7.94672740	     -7.66390793	      0.00000000	     -4.85263453	     -3.47698532	     -4.25547703	    -11.17814867	     -5.67428994	      9.59408815	     81.10434942	     94.96961652	     -0.90163837	    -13.39293852	     10.05175977	    105.04905546	     99.18279274
      5.26666670	    -11.22604414	      3.10455877	      0.09783276	      1.81412350	      1.00461268	     -0.50632170	     26.21389379	     -3.04823446	      5.22479016	     57.84376844	     11.57951940	    -26.02700089	      0.00000000	     11.80264784	      8.58333160	      0.87909473	     10.87211087	      7.80694231	     -7.37939931	      0.00000000	     -4.76309517	     -3.54098137	     -4.31277049	    -11.19679163	     -5.56753824	      9.38151180	     80.78383290	     94.96124482	     -1.17298095	    -13.28222340	     10.30766040	    104.82889488	     99.14773906
      5.27500000	    -11.44834313	      3.16137668	      0.40159229	      1.81150617	      1.00534555	     -0.50511377	     26.29841878	     -3.08817171	      5.21555707	     56.86950294	     12.71546989	    -25.38078034	      0.00000000	     12.27012103	      8.54511251	      0.63516097	     11.15277123	      7.86808988	     -6.87688623	      0.00000000	     -4.45785575	     -3.63751315	     -4.34428452	    -11.00518211	     -5.14703499	      8.70012459	     79.89833132	     94.92330959	     -1.16535489	    -13.25562045	     10.44095123	    104.18774643	     99.00727943
      5.28333330	    -11.47368871	      3.31038052	      0.44728588	      1.81414321	      1.00517529	     -0.50451157	     26.37335424	     -3.18263565	      5.29224340	     56.06934437	     12.82046459	    -25.42970142	      0.00000000	     12.41275591	      8.65150533	      0.60156040	     11.18155971	      7.88038387	     -6.88265582	      0.00000000	     -4.59486928	     -3.67803674	     -4.33037225	    -11.01040102	     -5.15464548	      8.68489697	     79.87002909	     94.92208933	     -1.19704573	    -13.22170040	     10.44841776	    104.14017266	     99.00277990
      5.29166670	    -11.46709231	      3.32821515	      0.65687248	      1.81459810	      1.00362185	     -0.50356936	     26.20114294	     -3.08778618	      5.32023455	     55.08997306	     13.40885848	    -25.79474874	      0.00000000	     12.52026645	      8.62312696	      0.60750103	     11.35960673	      8.01636451	     -6.83757277	      0.00000000	     -4.52896802	     -3.92786322	     -4.23739860	    -11.19374042	     -5.17293091	      8.58189598	     79.73915279	     94.91340874	     -1.59899549	    -12.93171844	     10.54455161	    103.98262958	     98.98762118
      5.30000000	    -11.54931860	      3.11343863	      0.86885843	      1.81483639	      1.00977593	     -0.50293769	     25.73274399	     -2.85379552	      5.12493194	     53.67124740	     13.70194959	    -25.38575931	      0.00000000	     12.47320713	      8.34737009	      0.65386820	     11.21370343	      7.98579650	     -5.92397859	      0.00000000	     -4.19169558	     -3.45266852	     -4.30678807	    -11.36653175	     -4.80645105	      7.73787523	     78.74692306	     94.81665979	     -2.05145445	    -12.20420429	     10.17193471	    102.45481469	     98.83223549
